<svg width="13" height="12" viewBox="0 0 13 12" xmlns="http://www.w3.org/2000/svg">
<g id="copy">
<path id="Vector" d="M10.25 0.75H3.96875C3.91719 0.75 3.875 0.792187 3.875 0.84375V1.5C3.875 1.55156 3.91719 1.59375 3.96875 1.59375H9.78125V9.65625C9.78125 9.70781 9.82344 9.75 9.875 9.75H10.5312C10.5828 9.75 10.625 9.70781 10.625 9.65625V1.125C10.625 0.917578 10.4574 0.75 10.25 0.75ZM8.75 2.25H2.75C2.54258 2.25 2.375 2.41758 2.375 2.625V8.84414C2.375 8.94375 2.41484 9.03867 2.48516 9.10898L4.51602 11.1398C4.5418 11.1656 4.57109 11.1867 4.60273 11.2043V11.2266H4.65195C4.69297 11.2418 4.73633 11.25 4.78086 11.25H8.75C8.95742 11.25 9.125 11.0824 9.125 10.875V2.625C9.125 2.41758 8.95742 2.25 8.75 2.25ZM4.97656 10.5H4.97422L3.21875 8.74453V8.74219H4.97656V10.5Z" fill="white"/>
</g>
</svg>
