<svg width="13" height="12" viewBox="0 0 13 12" fill="none" xmlns="http://www.w3.org/2000/svg">
<g id="edit">
<path id="Vector" d="M10.8125 9.79688H2.1875C1.98008 9.79688 1.8125 9.96445 1.8125 10.1719V10.5938C1.8125 10.6453 1.85469 10.6875 1.90625 10.6875H11.0938C11.1453 10.6875 11.1875 10.6453 11.1875 10.5938V10.1719C11.1875 9.96445 11.0199 9.79688 10.8125 9.79688ZM3.51992 8.8125C3.54336 8.8125 3.5668 8.81016 3.59023 8.80664L5.56133 8.46094C5.58477 8.45625 5.60703 8.4457 5.62344 8.42813L10.591 3.46055C10.6019 3.44971 10.6105 3.43683 10.6164 3.42265C10.6223 3.40847 10.6253 3.39328 10.6253 3.37793C10.6253 3.36258 10.6223 3.34738 10.6164 3.33321C10.6105 3.31903 10.6019 3.30615 10.591 3.29531L8.64336 1.34648C8.62109 1.32422 8.5918 1.3125 8.56016 1.3125C8.52852 1.3125 8.49922 1.32422 8.47695 1.34648L3.50937 6.31406C3.4918 6.33164 3.48125 6.35273 3.47656 6.37617L3.13086 8.34727C3.11946 8.41004 3.12353 8.47466 3.14273 8.53551C3.16192 8.59635 3.19566 8.65161 3.24102 8.69648C3.31836 8.77148 3.41563 8.8125 3.51992 8.8125Z" fill="white"/>
</g>
</svg>
